<svg width="59" height="65" viewBox="0 0 59 65" fill="none" xmlns="http://www.w3.org/2000/svg">
<path d="M57.8269 51.8207C51.5587 55.0842 44.5704 56.7364 37.5302 56.9647C37.5793 56.9049 37.6284 56.8478 37.6747 56.788C39.6523 54.3641 40.888 51.25 40.6807 48.087C40.2333 41.75 35.1271 37.1277 31.0219 32.8587C27.1486 28.4565 24.5545 22.7174 24.4345 16.8234C24.2709 10.4647 27.4432 4.55163 31.7284 0C18.3245 0.157609 5.75801 9.42935 1.65556 22.1196C-1.4431 31.2174 -0.136531 41.6658 5.13064 49.712C6.84364 52.3995 9.00942 54.7826 11.4289 56.8533C6.34174 52.3913 2.72209 46.3451 1.24095 39.788C-3.06062 21.0625 10.4715 2.60054 29.5708 1.05163C27.8523 3.11413 26.3766 5.39402 25.2883 7.86413C21.6905 15.7935 23.6981 24.9728 28.7961 31.769C31.0465 34.7799 34.126 37.212 36.2864 40.2147C40.1215 45.2962 41.0353 50.9321 36.851 56.1304C36.6164 56.4294 36.3709 56.7147 36.1145 56.9891C34.6279 57 33.1413 56.9457 31.6629 56.8288C26.5894 56.4864 21.415 55.7554 16.3169 56.4647C14.5766 56.7418 12.7464 57.0136 11.3116 58.1685C8.97396 60.0815 9.34493 63.1766 12.0944 64.4484C13.5865 65.1495 15.2477 65.0353 16.8052 64.894C18.3109 64.7527 19.8193 64.6005 21.3277 64.3967C26.9222 63.6929 32.8713 61.9946 36.8264 57.769C38.1248 57.7473 39.4232 57.6685 40.7216 57.5082C46.3406 56.9538 51.8669 55.4103 56.9268 52.9212C49.532 61.9185 37.2329 66.2908 25.7629 63.9239C37.6638 66.6631 50.7677 61.9103 58.187 52.25L58.9999 51.2174L57.8269 51.8207ZM21.1913 63.4103C19.7074 63.6141 18.2127 63.7717 16.7124 63.913C14.7185 64.1413 12.2063 64.1821 11.0388 62.3016C9.91775 60.3614 11.9171 58.4348 13.7583 57.9538C14.7758 57.6359 15.9269 57.4538 17.0016 57.3207C23.098 56.6332 29.2189 57.7038 35.3398 57.7717C31.5811 61.2989 26.2703 62.7446 21.1913 63.4103Z" fill="#EFE1CB"/>
<path d="M44.7208 22.6512L44.0471 22.1104C39.1263 18.037 36.6878 17.9392 30.5723 19.0805C34.6283 14.3631 35.7494 12.2191 34.672 5.94192C34.672 5.92561 34.5411 5.08594 34.5411 5.08594C36.4586 6.71094 38.4307 8.45279 40.8802 9.18376C43.0569 9.81963 45.4218 9.54789 47.6394 9.26257C44.0498 10.0425 40.7929 10.2789 37.5852 8.16474C36.8405 7.7055 36.1422 7.19463 35.4576 6.66202C36.2977 11.5017 35.6185 14.1403 32.6071 17.9093C37.3997 17.1974 40.0265 17.9338 43.8098 21.0751C43.6897 20.2218 43.5943 19.3577 43.567 18.4881C43.3324 14.662 45.1709 11.9691 47.6394 9.26257C46.281 11.0343 44.8626 12.9392 44.328 15.1349C43.7388 17.6131 44.2653 20.1838 44.7208 22.6512Z" fill="#EFE1CB"/>
</svg>
